<svg xmlns="http://www.w3.org/2000/svg" viewBox="0 0 800 450" font-family="Sora, Segoe UI, sans-serif">
  <defs>
    <linearGradient id="bg2" x1="0" y1="0" x2="1" y2="1">
      <stop offset="0" stop-color="#002524"/>
      <stop offset="0.55" stop-color="#0a0c1b"/>
      <stop offset="1" stop-color="#1c0f33"/>
    </linearGradient>
    <linearGradient id="acc2" x1="0" y1="0" x2="1" y2="0">
      <stop offset="0" stop-color="#00e0c6"/>
      <stop offset="1" stop-color="#8f7bff"/>
    </linearGradient>
    <radialGradient id="glow2" cx="0.35" cy="0.35" r="0.7">
      <stop offset="0" stop-color="#00e0c6" stop-opacity="0.4"/>
      <stop offset="1" stop-color="#00e0c6" stop-opacity="0"/>
    </radialGradient>
  </defs>
  <rect width="800" height="450" fill="url(#bg2)"/>
  <circle cx="240" cy="130" r="240" fill="url(#glow2)"/>
  <!-- browser mock -->
  <rect x="90" y="120" width="430" height="260" rx="16" fill="#0d0f22" stroke="#ffffff" stroke-opacity="0.18" stroke-width="2"/>
  <rect x="90" y="120" width="430" height="42" rx="16" fill="#141731"/>
  <circle cx="116" cy="141" r="6" fill="#ff5ca8"/>
  <circle cx="136" cy="141" r="6" fill="#ffcc66"/>
  <circle cx="156" cy="141" r="6" fill="#00e0c6"/>
  <rect x="176" y="132" width="240" height="18" rx="9" fill="#ffffff" opacity="0.12"/>
  <rect x="118" y="186" width="250" height="20" rx="10" fill="url(#acc2)" opacity="0.85"/>
  <rect x="118" y="222" width="370" height="10" rx="5" fill="#ffffff" opacity="0.22"/>
  <rect x="118" y="242" width="330" height="10" rx="5" fill="#ffffff" opacity="0.14"/>
  <rect x="118" y="262" width="350" height="10" rx="5" fill="#ffffff" opacity="0.14"/>
  <rect x="118" y="296" width="110" height="30" rx="15" fill="#00e0c6" opacity="0.85"/>
  <text x="173" y="316" font-size="14" fill="#04211e" text-anchor="middle" font-weight="700">Read more</text>
  <!-- rising SEO bars -->
  <g>
    <rect x="580" y="300" width="34" height="60" rx="8" fill="#8f7bff" opacity="0.75"/>
    <rect x="626" y="260" width="34" height="100" rx="8" fill="#7c6cff" opacity="0.85"/>
    <rect x="672" y="215" width="34" height="145" rx="8" fill="#00e0c6"/>
  </g>
  <g font-weight="800">
    <text x="580" y="150" font-size="40" fill="#ffffff">SEO</text>
    <text x="580" y="192" font-size="40" fill="url(#acc2)">Blog</text>
  </g>
  <text x="580" y="228" font-size="16" fill="#9aa0c0">keyword research · on-page SEO</text>
</svg>
